<svg width="150" height="101" viewBox="0 0 150 101" fill="none" xmlns="http://www.w3.org/2000/svg">
<rect width="150" height="101" fill="white"/>
<rect width="150" height="101" fill="url(#paint0_linear)"/>
<path d="M86.6152 25H64.3848C55.3502 25 48 32.3502 48 41.3848V63.6152C48 72.6498 55.3502 80 64.3848 80H86.6152C95.6498 80 103 72.6498 103 63.6152V41.3848C103 32.3502 95.6497 25 86.6152 25ZM97.467 63.6152C97.467 69.6084 92.6084 74.467 86.6152 74.467H64.3848C58.3916 74.467 53.533 69.6084 53.533 63.6152V41.3848C53.533 35.3915 58.3916 30.533 64.3848 30.533H86.6152C92.6084 30.533 97.467 35.3915 97.467 41.3848V63.6152Z" fill="white"/>
<path d="M75.4994 38.2754C67.6557 38.2754 61.2744 44.6567 61.2744 52.5002C61.2744 60.3438 67.6557 66.7252 75.4994 66.7252C83.343 66.7252 89.7243 60.3439 89.7243 52.5002C89.7243 44.6566 83.343 38.2754 75.4994 38.2754ZM75.4994 61.1923C70.6989 61.1923 66.8074 57.3008 66.8074 52.5003C66.8074 47.6999 70.699 43.8084 75.4994 43.8084C80.2998 43.8084 84.1913 47.6999 84.1913 52.5003C84.1913 57.3007 80.2997 61.1923 75.4994 61.1923Z" fill="white"/>
<path d="M89.7523 41.7903C91.6349 41.7903 93.1609 40.2643 93.1609 38.3817C93.1609 36.4992 91.6349 34.9731 89.7523 34.9731C87.8698 34.9731 86.3438 36.4992 86.3438 38.3817C86.3438 40.2643 87.8698 41.7903 89.7523 41.7903Z" fill="white"/>
<defs>
<linearGradient id="paint0_linear" x1="75" y1="101" x2="75" y2="0" gradientUnits="userSpaceOnUse">
<stop stop-color="#E09B3D"/>
<stop offset="0.3" stop-color="#C74C4D"/>
<stop offset="0.6" stop-color="#C21975"/>
<stop offset="1" stop-color="#7024C4"/>
</linearGradient>
</defs>
</svg>
