<?xml version="1.0" encoding="UTF-8"?>
<svg width="20px" height="20px" viewBox="0 0 20 20" version="1.1" xmlns="http://www.w3.org/2000/svg" xmlns:xlink="http://www.w3.org/1999/xlink">
    <title>social-media-facebook-1</title>
    <g id="Symbols" stroke="none" stroke-width="1" fill="none" fill-rule="evenodd">
        <g id="UI-/-Elements-/-Footer" transform="translate(-710.000000, -225.000000)" fill="#306a91" fill-rule="nonzero">
            <g id="Footer">
                <g id="Social-Media" transform="translate(665.000000, 225.000000)">
                    <g id="social-media-facebook-1" transform="translate(45.000000, 0.000000)">
                        <path d="M16.2916667,12.1333333 C16.2662402,12.3437354 16.0869274,12.5015308 15.875,12.5 L14.1666667,12.5 C13.936548,12.5 13.75,12.686548 13.75,12.9166667 L13.75,19.5833333 C13.75,19.813452 13.936548,20 14.1666667,20 L19.1666667,20 C19.626904,20 20,19.626904 20,19.1666667 L20,0.833333333 C20,0.373096042 19.626904,0 19.1666667,0 L0.833333333,0 C0.373096042,0 0,0.373096042 0,0.833333333 L0,19.1666667 C0,19.626904 0.373096042,20 0.833333333,20 L10,20 C10.2301186,20 10.4166667,19.813452 10.4166667,19.5833333 L10.4166667,12.9166667 C10.4166667,12.686548 10.2301186,12.5 10,12.5 L8.33333333,12.5 C8.10321469,12.5 7.91666667,12.313452 7.91666667,12.0833333 L7.91666667,9.58333333 C7.91666667,9.35321469 8.10321469,9.16666667 8.33333333,9.16666667 L10,9.16666667 C10.2301186,9.16666667 10.4166667,8.98011865 10.4166667,8.75 L10.4166667,7.65833333 C10.4166667,5.03958314 12.5395831,2.91666667 15.1583333,2.91666667 L16.25,2.91666667 C16.3605069,2.91666667 16.4664877,2.96056535 16.5446278,3.03870551 C16.622768,3.11684567 16.6666667,3.22282646 16.6666667,3.33333333 L16.6666667,5.83333333 C16.6666667,6.06345198 16.4801186,6.25 16.25,6.25 L15.1583333,6.25 C14.3805323,6.25 13.75,6.88053231 13.75,7.65833333 L13.75,8.75 C13.75,8.98011865 13.936548,9.16666667 14.1666667,9.16666667 L16.1916667,9.16666667 C16.3114083,9.165801 16.4257343,9.21649377 16.5054862,9.30581587 C16.5852381,9.39513798 16.6227058,9.51445427 16.6083333,9.63333333 L16.2916667,12.1333333 Z" id="Path"></path>
                    </g>
                </g>
            </g>
        </g>
    </g>
</svg>