<?xml version="1.0" encoding="UTF-8"?>
<svg width="20px" height="20px" viewBox="0 0 20 20" version="1.1" xmlns="http://www.w3.org/2000/svg" xmlns:xlink="http://www.w3.org/1999/xlink">
    <title>social-instagram</title>
    <g id="Symbols" stroke="none" stroke-width="1" fill="none" fill-rule="evenodd">
        <g id="UI-/-Elements-/-Footer" transform="translate(-755.000000, -225.000000)" fill="#306a91" fill-rule="nonzero">
            <g id="Footer">
                <g id="Social-Media" transform="translate(665.000000, 225.000000)">
                    <g id="social-instagram" transform="translate(90.000000, 0.000000)">
                        <path d="M14.5833333,0 L5.41666667,0 C2.4270271,0.00458886392 0.00458886392,2.4270271 0,5.41666667 L0,14.5833333 C0.00458886392,17.5729729 2.4270271,19.9954111 5.41666667,20 L14.5833333,20 C17.5729729,19.9954111 19.9954111,17.5729729 20,14.5833333 L20,5.41666667 C19.9954111,2.4270271 17.5729729,0.00458886392 14.5833333,0 Z M10,14.5833333 C7.4686949,14.5833333 5.41666667,12.5313051 5.41666667,10 C5.41666667,7.4686949 7.4686949,5.41666667 10,5.41666667 C12.5313051,5.41666667 14.5833333,7.4686949 14.5833333,10 C14.5833333,11.2155756 14.1004478,12.3813643 13.2409061,13.2409061 C12.3813643,14.1004478 11.2155756,14.5833333 10,14.5833333 Z M15.4166667,5.41666667 C14.7263107,5.41666667 14.1666667,4.8570226 14.1666667,4.16666667 C14.1666667,3.47631073 14.7263107,2.91666667 15.4166667,2.91666667 C16.1070226,2.91666667 16.6666667,3.47631073 16.6666667,4.16666667 C16.6666667,4.49818728 16.5349706,4.81612967 16.3005501,5.05055014 C16.0661297,5.28497062 15.7481873,5.41666667 15.4166667,5.41666667 Z" id="Shape"></path>
                    </g>
                </g>
            </g>
        </g>
    </g>
</svg>