<?xml version="1.0" encoding="UTF-8"?>
<svg width="20px" height="17px" viewBox="0 0 20 17" version="1.1" xmlns="http://www.w3.org/2000/svg" xmlns:xlink="http://www.w3.org/1999/xlink">
    <title>social-media-twitter</title>
    <g id="Symbols" stroke="none" stroke-width="1" fill="none" fill-rule="evenodd">
        <g id="UI-/-Elements-/-Footer" transform="translate(-665.000000, -227.000000)" fill="#306a91" fill-rule="nonzero">
            <g id="Footer">
                <g id="Social-Media" transform="translate(665.000000, 225.000000)">
                    <g id="social-media-twitter" transform="translate(0.000000, 2.000000)">
                        <path d="M19.8438702,3.5932729 C19.969449,3.49038093 20.0255711,3.32656425 19.9889864,3.16968873 C19.9524017,3.0128132 19.8293418,2.88960074 19.670788,2.85109573 L18.9871135,2.68048028 C18.8612327,2.64941475 18.756141,2.56429934 18.7008064,2.44859575 C18.6454718,2.33289217 18.6457367,2.19881654 18.7015279,2.08332624 L19.0823087,1.32408753 C19.1557662,1.17384637 19.1336536,0.995183503 19.0257062,0.866758979 C18.9177589,0.738334456 18.7437812,0.68370934 18.5803704,0.726933481 L16.8495488,1.20465672 C16.7187995,1.24224844 16.5777257,1.21696422 16.468768,1.13641054 C15.7197715,0.582669048 14.8087812,0.283333333 13.8725356,0.283333333 C11.4827696,0.283333333 9.5454815,2.19301171 9.5454815,4.54871937 L9.5454815,4.85582716 C9.54627635,4.9643014 9.46434167,5.05608204 9.35509112,5.06909646 C6.92328673,5.35061194 4.59533165,4.13071154 2.08564029,1.28143367 C1.974488,1.16059328 1.80410267,1.11119415 1.64428078,1.15347208 C1.50042956,1.21865102 1.40417413,1.35606869 1.39331164,1.51176451 C1.04667784,2.91536805 1.18682472,4.3929676 1.79140061,5.70890437 C1.82786696,5.78005642 1.82103379,5.86531605 1.77368553,5.92994085 C1.72633727,5.99456564 1.64637936,6.02776563 1.5663938,6.01601216 L0.597133693,5.82833518 C0.457427347,5.80619376 0.315565035,5.85278584 0.217248806,5.95310142 C0.118932578,6.053417 0.0765853189,6.19478056 0.10384953,6.33165073 C0.255201334,7.65780998 1.00984417,8.84426403 2.15487316,9.55628257 C2.22951275,9.59191698 2.2769199,9.666474 2.2769199,9.74822494 C2.2769199,9.82997588 2.22951275,9.9045329 2.15487316,9.94016731 L1.69620543,10.1193135 C1.58358286,10.1638207 1.49509187,10.2528954 1.45230767,10.3648199 C1.40952347,10.4767444 1.41637748,10.6012341 1.47119861,10.7079368 C1.98606249,11.818477 3.02108467,12.6091873 4.24051321,12.8235683 C4.32607735,12.8541813 4.3830519,12.934313 4.3830519,13.0240414 C4.3830519,13.1137698 4.32607735,13.1939015 4.24051321,13.2245146 C3.06386908,13.7042306 1.80114901,13.9450514 0.527900828,13.9325686 C0.288924234,13.8854545 0.05644967,14.0382288 0.00865435148,14.2737995 C-0.0391409671,14.5093703 0.115842074,14.7385317 0.354818665,14.7856458 C2.5594914,15.8163727 4.95982788,16.3773833 7.39926268,16.4320849 C9.54500844,16.4643451 11.6525683,15.870767 13.4571384,14.7259304 C16.4720375,12.7420811 18.2785399,9.40156118 18.2688225,5.82833518 L18.2688225,5.08615801 C18.2698914,4.96078529 18.3268632,4.84222561 18.4245964,4.76198867 L19.8438702,3.5932729 Z" id="Path"></path>
                    </g>
                </g>
            </g>
        </g>
    </g>
</svg>