<svg width="12" height="12" viewBox="0 0 12 12" fill="none" xmlns="http://www.w3.org/2000/svg">
<path d="M6.56089 2.4C5.33073 4 3.69051 4 2.87041 6H1.23019C0.574102 6 0.41008 6.53333 0.41008 6.8V10C0.41008 10.64 0.956819 10.8 1.23019 10.8H2.46035C3.28046 10.8 3.28046 11.6 4.10057 11.6H7.79106C9.10323 11.6 9.43127 10.5333 9.43127 10H9.84133C9.84133 10 10.2514 10 10.2514 9.6V8.4C10.2514 8.4 10.6614 8.4 10.6614 8V6.8H11.0715C11.8237 6.8 11.8156 4.8 10.6614 4.8H7.381C7.79106 4.8 9.02122 3.6 9.02122 2C9.02122 0.720002 8.06443 0.400002 7.381 0.400002C7.381 1.06667 6.95455 1.888 6.56089 2.4Z" fill="#FFBD00"/>
<path fill-rule="evenodd" clip-rule="evenodd" d="M6.97092 0.4C6.97092 0.179086 7.15451 0 7.38098 0C7.77775 0 8.28591 0.0913372 8.70505 0.401212C9.14374 0.72554 9.43125 1.24996 9.43125 2C9.43125 2.89953 9.08643 3.67804 8.69078 4.22939C8.64836 4.2885 8.60506 4.34543 8.56118 4.4H10.6614C11.0889 4.4 11.4199 4.59187 11.6404 4.86509C11.8517 5.12696 11.9574 5.45509 11.9892 5.75942C12.0209 6.06255 11.9839 6.38652 11.8606 6.65241C11.7379 6.91697 11.4836 7.2 11.0715 7.2V8C11.0715 8.16999 11.0267 8.32408 10.9385 8.45313C10.8582 8.57061 10.7556 8.64743 10.6614 8.69682V9.6C10.6614 9.76999 10.6167 9.92408 10.5285 10.0531C10.442 10.1797 10.3296 10.259 10.2297 10.3078C10.1314 10.3557 10.0381 10.3777 9.97279 10.3883C9.93917 10.3938 9.91025 10.3967 9.88814 10.3982C9.87701 10.399 9.86741 10.3994 9.85957 10.3997L9.84909 10.3999L9.84485 10.4L9.84299 10.4L9.84213 10.4C9.84192 10.4 9.8413 10.4 9.8413 10V10.4H9.79942C9.74551 10.6667 9.63427 10.9651 9.43598 11.2337C9.11392 11.6701 8.58076 12 7.79103 12H4.10054C3.5202 12 3.21042 11.6976 3.00121 11.4933L2.99048 11.4828C2.78976 11.287 2.69009 11.2 2.46033 11.2H1.23016C1.02786 11.2 0.733533 11.1441 0.477998 10.9646C0.201555 10.7705 0 10.4504 0 10V6.8C0 6.60266 0.0573178 6.31555 0.241303 6.06628C0.440342 5.79661 0.768475 5.6 1.23016 5.6H2.60118C3.05159 4.65947 3.68747 4.154 4.32845 3.72112C4.43645 3.64819 4.54321 3.57797 4.64862 3.50864C5.22209 3.13147 5.75577 2.78048 6.23282 2.16C6.41119 1.92801 6.59959 1.62194 6.74198 1.29968C6.88623 0.973183 6.97092 0.657851 6.97092 0.4ZM8.9545 10.4H8.20109C7.97462 10.4 7.79103 10.2209 7.79103 10C7.79103 9.77909 7.97462 9.6 8.20109 9.6H9.83214C9.83356 9.59984 9.83555 9.59959 9.83796 9.59919C9.8391 9.59901 9.84021 9.59881 9.8413 9.59861V8.8H8.61114C8.38467 8.8 8.20109 8.62091 8.20109 8.4C8.20109 8.17909 8.38467 8 8.61114 8H10.2422C10.2436 7.99984 10.2456 7.99959 10.248 7.99919C10.2492 7.99901 10.2503 7.99881 10.2514 7.99861V7.2H9.02119C8.79473 7.2 8.61114 7.02091 8.61114 6.8C8.61114 6.57909 8.79473 6.4 9.02119 6.4H11.0629C11.0721 6.39154 11.0918 6.36924 11.1134 6.32259C11.1641 6.21348 11.1939 6.03745 11.1734 5.84058C11.1529 5.64491 11.0872 5.47304 10.996 5.35991C10.9138 5.25813 10.811 5.2 10.6614 5.2H7.38098C7.15451 5.2 6.97092 5.02091 6.97092 4.8C6.97092 4.58727 7.14116 4.41333 7.35599 4.40073C7.36154 4.39869 7.37085 4.39491 7.3842 4.38833C7.42414 4.36863 7.48106 4.33318 7.55123 4.27741C7.69112 4.16622 7.85824 3.99453 8.01893 3.77062C8.34088 3.32196 8.61114 2.70047 8.61114 2C8.61114 1.47004 8.42025 1.19446 8.20969 1.03879C8.07598 0.939933 7.91463 0.875336 7.74668 0.838562C7.69515 1.10609 7.60323 1.3716 7.49511 1.61632C7.32585 1.99939 7.1042 2.35999 6.88891 2.64C6.32227 3.37699 5.6645 3.80773 5.08826 4.18507C4.98781 4.25085 4.88984 4.315 4.79526 4.37888C4.15846 4.80893 3.61816 5.25342 3.25111 6.14856C3.18883 6.30042 3.03805 6.4 2.87038 6.4H1.23016C1.03576 6.4 0.953842 6.47005 0.906849 6.53372C0.844802 6.61779 0.820109 6.73068 0.820109 6.8V10C0.820109 10.1896 0.891923 10.2695 0.957192 10.3154C1.04337 10.3759 1.1591 10.4 1.23016 10.4H2.46033C3.04067 10.4 3.35045 10.7024 3.55966 10.9067C3.56326 10.9102 3.56684 10.9137 3.57039 10.9172C3.77111 11.113 3.87078 11.2 4.10054 11.2H7.79103C8.31347 11.2 8.60042 10.9966 8.77043 10.7663C8.85501 10.6517 8.91466 10.5241 8.9545 10.4ZM10.2398 8.00024C10.2398 8.00024 10.2397 8.00024 10.2398 8.00024Z" fill="#DB0000"/>
<path d="M2.05025 6.8H2.87036C4.10052 6.8 4.92063 6 6.65561 6C7.79101 6 7.79115 6.31111 7.79115 6.46667V10.2C7.79115 10.9467 7.79101 11.2 7.38095 11.2H4.9206H4.10066C3.69044 11.2 3.28039 10.4 2.46044 10.4H2.05039L2.05025 6.8Z" fill="url(#paint0_linear)" fill-opacity="0.83"/>
<defs>
<linearGradient id="paint0_linear" x1="7.79101" y1="8.4" x2="2.05029" y2="8.32994" gradientUnits="userSpaceOnUse">
<stop stop-color="#FFBD00" stop-opacity="0"/>
<stop offset="0.0654403" stop-color="#C22705" stop-opacity="0.16"/>
<stop offset="0.307833" stop-color="#F55800"/>
<stop offset="0.935135" stop-color="#FFBD00"/>
</linearGradient>
</defs>
</svg>
