<svg width="12" height="12" viewBox="0 0 12 12" fill="none" xmlns="http://www.w3.org/2000/svg">
<path d="M5.43911 9.6C6.66927 8 8.30949 8 9.12959 6L10.7698 6C11.4259 6 11.5899 5.46667 11.5899 5.2L11.5899 2C11.5899 1.36 11.0432 1.2 10.7698 1.2L9.53965 1.2C8.71954 1.2 8.71954 0.399998 7.89943 0.399998L4.20894 0.399998C2.89677 0.399998 2.56873 1.46666 2.56873 2L2.15867 2C2.15867 2 1.74862 2 1.74862 2.4L1.74862 3.6C1.74862 3.6 1.33856 3.6 1.33856 4L1.33856 5.2L0.92851 5.2C0.176333 5.2 0.184438 7.2 1.33856 7.2L4.619 7.2C4.20894 7.2 2.97878 8.4 2.97878 10C2.97878 11.28 3.93557 11.6 4.619 11.6C4.619 10.9333 5.04545 10.112 5.43911 9.6Z" fill="#C4C4C4"/>
<path fill-rule="evenodd" clip-rule="evenodd" d="M5.02908 11.6C5.02908 11.8209 4.84549 12 4.61902 12C4.22225 12 3.71409 11.9087 3.29495 11.5988C2.85626 11.2745 2.56875 10.75 2.56875 10C2.56875 9.10047 2.91357 8.32196 3.30922 7.77061C3.35164 7.7115 3.39494 7.65457 3.43882 7.6L1.33859 7.6C0.911107 7.6 0.580116 7.40812 0.359643 7.13491C0.148323 6.87304 0.0425749 6.54491 0.01076 6.24058C-0.020929 5.93745 0.0160534 5.61348 0.139399 5.34759C0.262129 5.08303 0.516378 4.8 0.928535 4.8L0.928536 4C0.928536 3.83001 0.97328 3.67592 1.06148 3.54687C1.14176 3.42939 1.24437 3.35257 1.33859 3.30318L1.33859 2.4C1.33859 2.23001 1.38333 2.07592 1.47153 1.94687C1.55801 1.82032 1.67039 1.74095 1.77029 1.69223C1.86859 1.64429 1.96192 1.62231 2.02722 1.61169C2.06084 1.60623 2.08975 1.60334 2.11186 1.6018C2.12299 1.60102 2.13259 1.60057 2.14043 1.60032L2.15091 1.60006L2.15515 1.60001L2.15701 1.6L2.15788 1.6C2.15808 1.6 2.1587 1.6 2.1587 2L2.1587 1.6L2.20058 1.6C2.25449 1.33329 2.36573 1.03494 2.56402 0.766277C2.88608 0.329945 3.41924 -9.28968e-07 4.20897 -8.59928e-07L7.89946 -5.37295e-07C8.4798 -4.86559e-07 8.78958 0.302437 8.99879 0.506683L9.00952 0.517157C9.21024 0.712955 9.30992 0.8 9.53968 0.8L10.7698 0.8C10.9721 0.8 11.2665 0.855912 11.522 1.03539C11.7984 1.22954 12 1.54963 12 2L12 5.2C12 5.39734 11.9427 5.68445 11.7587 5.93372C11.5597 6.20339 11.2315 6.4 10.7698 6.4L9.39882 6.4C8.94841 7.34053 8.31254 7.846 7.67155 8.27888C7.56355 8.35181 7.45679 8.42203 7.35138 8.49136C6.77791 8.86853 6.24423 9.21952 5.76718 9.84C5.58881 10.072 5.40041 10.3781 5.25802 10.7003C5.11377 11.0268 5.02908 11.3421 5.02908 11.6ZM3.0455 1.6L3.79892 1.6C4.02538 1.6 4.20897 1.77909 4.20897 2C4.20897 2.22091 4.02538 2.4 3.79892 2.4L2.16786 2.4C2.16644 2.40016 2.16445 2.40041 2.16204 2.40081C2.1609 2.40099 2.15979 2.40119 2.1587 2.40139L2.1587 3.2L3.38886 3.2C3.61533 3.2 3.79892 3.37909 3.79892 3.6C3.79892 3.82091 3.61533 4 3.38886 4L1.75781 4C1.75639 4.00016 1.7544 4.00041 1.75199 4.00081C1.75085 4.00099 1.74973 4.00119 1.74864 4.00139L1.74864 4.8L2.97881 4.8C3.20527 4.8 3.38886 4.97909 3.38886 5.2C3.38886 5.42091 3.20527 5.6 2.97881 5.6L0.937129 5.6C0.927903 5.60846 0.908209 5.63076 0.886565 5.67741C0.835948 5.78652 0.806057 5.96255 0.826637 6.15942C0.847093 6.35509 0.912758 6.52696 1.00405 6.64009C1.08619 6.74187 1.18901 6.8 1.33859 6.8L4.61902 6.8C4.84549 6.8 5.02908 6.97909 5.02908 7.2C5.02908 7.41273 4.85884 7.58667 4.64401 7.59927C4.63846 7.60131 4.62915 7.60509 4.6158 7.61167C4.57586 7.63136 4.51894 7.66681 4.44877 7.72259C4.30888 7.83378 4.14176 8.00546 3.98107 8.22938C3.65912 8.67804 3.38886 9.29953 3.38886 10C3.38886 10.53 3.57975 10.8055 3.79031 10.9612C3.92402 11.0601 4.08537 11.1247 4.25332 11.1614C4.30485 10.8939 4.39677 10.6284 4.50489 10.3837C4.67415 10.0006 4.8958 9.64001 5.11109 9.36C5.67773 8.62301 6.3355 8.19227 6.91174 7.81493C7.01219 7.74915 7.11016 7.685 7.20474 7.62112C7.84154 7.19107 8.38184 6.74657 8.74889 5.85144C8.81117 5.69958 8.96195 5.6 9.12962 5.6L10.7698 5.6C10.9642 5.6 11.0462 5.52995 11.0932 5.46628C11.1552 5.38221 11.1799 5.26932 11.1799 5.2L11.1799 2C11.1799 1.81037 11.1081 1.73045 11.0428 1.68461C10.9566 1.62409 10.8409 1.6 10.7698 1.6L9.53968 1.6C8.95933 1.6 8.64955 1.29756 8.44035 1.09332C8.43674 1.0898 8.43316 1.0863 8.42961 1.08284C8.2289 0.887044 8.12922 0.799999 7.89946 0.799999L4.20897 0.799999C3.68653 0.799999 3.39958 1.00339 3.22957 1.23372C3.14499 1.34832 3.08534 1.47589 3.0455 1.6ZM1.76025 3.99976C1.76023 3.99976 1.76027 3.99976 1.76025 3.99976Z" fill="#5F5F5F"/>
<path d="M9.94975 5.2L9.12964 5.2C7.89948 5.2 7.07937 6 5.34439 6C4.20899 6 4.20885 5.68889 4.20885 5.53333L4.20885 1.8C4.20885 1.05333 4.20899 0.8 4.61905 0.8L7.0794 0.8L7.89934 0.8C8.30956 0.8 8.71961 1.6 9.53956 1.6L9.94961 1.6L9.94975 5.2Z" fill="url(#paint0_linear)" fill-opacity="0.83"/>
<defs>
<linearGradient id="paint0_linear" x1="4.20899" y1="3.6" x2="9.94971" y2="3.67006" gradientUnits="userSpaceOnUse">
<stop stop-color="#C4C4C4" stop-opacity="0"/>
<stop offset="0.0654403" stop-color="#939292" stop-opacity="0.78"/>
<stop offset="0.307833" stop-color="#939292"/>
<stop offset="0.935135" stop-color="#939292" stop-opacity="0"/>
</linearGradient>
</defs>
</svg>
